# xmcd
#
# Track frame offsets: 
#        150
#        31117
#        55227
#        77085
#        114815
#        139302
#        175732
#        179192
#        214470
#
# Disc length: 3146 seconds
#
# Revision: 3
# Processed by: cddbd v1.5.2PL0 Copyright (c) Steve Scherf et al.
# Submitted via: ExactAudioCopy v0.95b4
#
DISCID=7d0c4809
DTITLE=Freddie King - Boogie On Down - The Essential Collection [CD 1)
DYEAR=1900
DGENRE=
TTITLE0=Your Move
TTITLE1=Ain't Gonna Worry Anymore
TTITLE2=Hideaway
TTITLE3=Guitar Blues
TTITLE4=Meet Me In The Morning
TTITLE5=Sweet Home Chicago
TTITLE6=Boogie On Down
TTITLE7=Big Legged Woman
TTITLE8=Hey Baby
EXTD=
EXTT0=
EXTT1=
EXTT2=
EXTT3=
EXTT4=
EXTT5=
EXTT6=
EXTT7=
EXTT8=
PLAYORDER=
